<?xml version="1.0" encoding="UTF-8"?>
<svg version="1.1" xmlns="http://www.w3.org/2000/svg" width="2769" height="772">
<path d="M0 0 C1.26883616 -0.00935994 1.26883616 -0.00935994 2.56330538 -0.01890898 C5.40247108 -0.03488507 8.24078373 -0.02221679 11.07995605 -0.00964355 C13.11344403 -0.01506262 15.14692808 -0.02218406 17.18040466 -0.03088379 C22.70721722 -0.04914561 28.23373167 -0.04203773 33.76054955 -0.02936745 C39.53894237 -0.01925462 45.31730932 -0.02862834 51.09570312 -0.03491211 C60.80029899 -0.04219352 70.50477318 -0.03258782 80.20935059 -0.0135498 C91.4361415 0.00821981 102.66264188 0.00116879 113.88942575 -0.02085543 C123.52093703 -0.03899533 133.15236074 -0.04157463 142.78388357 -0.03110075 C148.53969175 -0.02485808 154.29536327 -0.02405148 160.05116272 -0.0372467 C165.46192111 -0.04878401 170.87230417 -0.04081809 176.28302193 -0.01766968 C178.27123452 -0.01237127 180.2594786 -0.01391562 182.24767876 -0.02272034 C184.95713387 -0.03361473 187.66537836 -0.01998652 190.37475586 0 C191.16580231 -0.00892289 191.95684876 -0.01784577 192.77186632 -0.02703905 C196.32496247 0.02397159 198.2878843 0.19640104 201.13185883 2.4141922 C202.64042003 4.44472883 203.80696315 6.34049185 204.87097168 8.63293457 C205.4225293 9.80771362 205.4225293 9.80771362 205.98522949 11.00622559 C206.36131348 11.83178955 206.73739746 12.65735352 207.12487793 13.50793457 C207.52029785 14.35863525 207.91571777 15.20933594 208.32312012 16.08581543 C210.88742889 21.64058865 213.29465603 27.2465557 215.58972168 32.91809082 C216.62241145 35.35465067 217.7700761 37.66603471 218.99987793 40.00793457 C221.98706461 45.82261557 224.28082092 51.90270755 226.67053223 57.97937012 C229.00380341 63.88317831 231.53543612 69.62081303 234.24987793 75.35949707 C236.96694492 81.31046444 239.30284917 87.41790232 241.68737793 93.50793457 C244.87588887 101.60099533 248.3301596 109.53126994 251.93737793 117.44543457 C269.82094452 156.75656722 269.82094452 156.75656722 274.24987793 169.82043457 C276.21734824 175.55439771 278.75468962 180.76559764 281.53527832 186.1307373 C284.66202988 192.25222689 287.18907033 198.54804147 289.68884277 204.94616699 C291.86950873 210.51042349 294.17129646 215.9961308 296.62487793 221.44543457 C300.75381311 230.61563021 304.7143218 239.85329894 308.65759277 249.10461426 C309.60192747 251.30850966 310.55731489 253.50705834 311.51940918 255.70324707 C311.93102295 256.64732422 311.93102295 256.64732422 312.35095215 257.61047363 C313.06315796 259.24158221 313.77937548 260.87093756 314.49597168 262.50012207 C315.79721718 265.78523365 316.71889191 269.11215513 317.68737793 272.50793457 C318.18237793 273.33293457 318.67737793 274.15793457 319.18737793 275.00793457 C320.68737793 277.50793457 320.68737793 277.50793457 321.62487793 280.82043457 C322.43313055 283.62554662 323.17709416 285.62441954 324.49987793 288.14465332 C326.81018234 292.67626416 328.78269783 297.31938393 330.74987793 302.00793457 C334.13073689 309.99230365 337.66831908 317.89042153 341.31237793 325.75793457 C344.73832988 333.16244921 348.02081663 340.58836189 351.06384277 348.15759277 C353.36220117 353.82917382 355.87965153 359.38664252 358.43737793 364.94543457 C363.67503925 376.34575933 368.56281176 387.88294093 373.40759277 399.45471191 C374.60631249 402.31453427 375.81123048 405.17162888 377.01940918 408.02746582 C382.56216517 421.13423197 382.56216517 421.13423197 384.74987793 426.69543457 C386.36369898 430.77910349 388.10798477 434.80123263 389.87487793 438.82043457 C392.74577564 445.35491103 395.60586986 451.89377299 398.43737793 458.44543457 C398.81402588 459.30886475 399.19067383 460.17229492 399.57873535 461.06188965 C401.22670027 464.88530077 402.76230841 468.64612418 403.95300293 472.63684082 C405.35054874 477.00123294 407.36755756 481.00140645 409.44909668 485.07043457 C413.19765003 492.40016205 416.49687417 499.84510318 419.64611816 507.44876099 C421.13116315 511.03052429 422.63711711 514.60345599 424.14440918 518.17590332 C424.44388458 518.8858696 424.74335999 519.59583588 425.0519104 520.32731628 C431.09469638 534.60026105 437.53783148 548.75184519 444.68737793 562.50793457 C445.67737793 562.50793457 446.66737793 562.50793457 447.68737793 562.50793457 C453.46716404 548.71047473 459.1700784 534.88481027 464.78796387 521.02062988 C467.18750491 515.11970036 469.63955689 509.25595764 472.24987793 503.44543457 C475.28762214 496.67118255 477.92598646 489.75933295 480.56237793 482.82043457 C484.60570184 472.18784909 488.93547137 461.7244945 493.47937012 451.29797363 C495.77005153 446.00736991 498.00721188 440.69402624 500.24987793 435.38293457 C500.71901611 434.27232666 501.1881543 433.16171875 501.67150879 432.01745605 C502.58863758 429.84591725 503.50555453 427.67428895 504.42224121 425.50256348 C505.53806828 422.86135645 506.65687571 420.22144566 507.77722168 417.58215332 C512.1343622 407.30027044 516.3535978 396.96575351 520.55065918 386.61755371 C523.70098501 378.8717336 526.94804646 371.17496407 530.27307129 363.50280762 C533.35479778 356.36082282 536.2763343 349.15840409 539.18737793 341.94543457 C543.46120981 331.37128884 548.00535009 320.9563028 552.7454834 310.58459473 C554.82351966 306.00300416 556.78591337 301.37200075 558.74450684 296.73840332 C559.93546847 293.92104819 561.12996916 291.10519928 562.32409668 288.28918457 C567.78729004 275.40319072 567.78729004 275.40319072 573.19128418 262.49230957 C574.88755811 258.41389882 576.60319742 254.34447664 578.33581543 250.28137207 C582.74836423 239.93180847 587.11504333 229.58446171 591.12219238 219.07067871 C593.7072412 212.33876471 596.55786791 205.72911161 599.42224121 199.11218262 C601.58661669 194.10400436 603.68505104 189.08308444 605.68737793 184.00793457 C607.96182258 178.25346532 610.35955894 172.56351493 612.81237793 166.88293457 C616.49358974 158.35183471 620.08009026 149.78405718 623.62487793 141.19543457 C623.88037415 140.5766745 624.13587036 139.95791443 624.39910889 139.32040405 C625.67778559 136.22359789 626.95588783 133.1265553 628.23376465 130.02941895 C637.98412536 106.40845776 648.01132115 82.91217479 658.23449707 59.49206543 C661.32145712 52.39930962 664.30041291 45.26691218 667.21472168 38.10168457 C668.38995682 35.23373676 669.59080925 32.38034216 670.81896973 29.53479004 C671.90208894 27.00680135 672.96305413 24.46973914 674.02722168 21.93371582 C674.89271492 19.89578881 675.75860935 17.85803213 676.62487793 15.82043457 C677.05478027 14.78854004 677.48468262 13.75664551 677.9276123 12.69348145 C678.3523584 11.70025879 678.77710449 10.70703613 679.21472168 9.68371582 C679.59362549 8.78564209 679.9725293 7.88756836 680.36291504 6.96228027 C681.911248 4.09308373 683.09317063 2.51467239 685.68737793 0.50793457 C688.53935468 0.11724935 691.00424752 -0.02854725 693.85487366 0.00672913 C694.68513579 0.00119473 695.51539792 -0.00433967 696.37081951 -0.01004177 C699.15706202 -0.02367143 701.94241234 -0.00866677 704.7286377 0.00622559 C706.72433859 0.00244328 708.72003687 -0.00305603 710.71572876 -0.01014709 C716.13918534 -0.02412955 721.56232567 -0.01291268 726.98576474 0.00356412 C732.65518025 0.01739371 738.32457702 0.010957 743.9940033 0.00743103 C753.5144868 0.00472748 763.03484432 0.01821782 772.55529785 0.04138184 C783.57189884 0.06800007 794.58828926 0.06973677 805.60491139 0.05799347 C816.19181938 0.04722574 826.77865099 0.05339438 837.3655529 0.06754875 C841.87627906 0.0733165 846.38694947 0.0732197 850.89767647 0.06848335 C856.20578796 0.06372166 861.51366796 0.07378172 866.82173538 0.095438 C868.77327761 0.10101679 870.72484203 0.10146122 872.67638588 0.09648514 C875.33347202 0.0905582 877.98984418 0.10298717 880.64686584 0.12025452 C881.42526135 0.11424447 882.20365685 0.10823443 883.00564009 0.10204226 C888.20128926 0.16374894 888.20128926 0.16374894 890.64694118 1.89544582 C894.04125783 7.15602261 893.14323766 14.81381312 892.12487793 20.75793457 C891.15540274 23.99514604 890.70562632 24.4944273 887.80065918 26.64465332 C882.94785751 29.20950118 877.82758399 29.54687479 872.43737793 30.07043457 C858.71894106 31.47861849 847.74269312 34.92321857 835.68737793 41.50793457 C834.3957373 42.16729004 834.3957373 42.16729004 833.07800293 42.83996582 C825.90661097 46.93260503 822.51911596 53.46764227 818.68737793 60.50793457 C818.21429199 61.27621582 817.74120605 62.04449707 817.25378418 62.83605957 C809.34739041 76.53062324 807.76157934 94.60576904 807.08190918 110.09973145 C807.02583496 111.25118652 807.02583496 111.25118652 806.96862793 112.42590332 C806.92318848 113.45880493 806.92318848 113.45880493 806.87683105 114.51257324 C806.68737793 116.50793457 806.68737793 116.50793457 806.18305302 118.35186982 C805.65603319 120.64427649 805.5643334 122.64981398 805.56712341 125.00033188 C805.56506189 126.35077658 805.56506189 126.35077658 805.56295872 127.72850299 C805.56655368 128.71369332 805.57014864 129.69888364 805.57385254 130.71392822 C805.57370368 131.76369693 805.57355482 132.81346564 805.57340145 133.89504552 C805.57409777 137.42455738 805.58194863 140.95401766 805.58972168 144.48352051 C805.59164029 147.00984162 805.59310436 149.53616311 805.59414673 152.06248474 C805.59731249 157.51084889 805.60347712 162.95919681 805.61221313 168.40755463 C805.62477725 176.30238848 805.63084673 184.19721732 805.6351465 192.09205952 C805.64221742 204.92388511 805.65301867 217.75570442 805.66687012 230.58752441 C805.66769793 231.35563467 805.66852574 232.12374492 805.66937864 232.91513124 C805.67611645 239.14052225 805.68303528 245.36591305 805.68998146 251.59130383 C805.69602979 257.01549966 805.70201213 262.43969557 805.70788574 267.8638916 C805.70912793 269.00919337 805.70912793 269.00919337 805.71039522 270.17763254 C805.72412161 282.94697471 805.73386038 295.71631699 805.74079609 308.48566461 C805.74525872 316.35058713 805.75326015 324.2154906 805.7659409 332.08040425 C805.77542921 338.12473998 805.77972381 344.16906819 805.78219223 350.21341133 C805.78405377 352.68035897 805.78763355 355.14730605 805.79312515 357.61424828 C805.81798533 369.15256056 805.81031294 380.63005342 804.91223145 392.13827896 C803.88322516 407.558971 804.82968536 423.18258053 805.0916748 438.6270752 C805.10444269 439.38015017 805.11721058 440.13322514 805.13036537 440.90912056 C805.19612392 444.76055163 805.26406846 448.61192795 805.33557129 452.46325684 C805.40569197 456.25110982 805.46976158 460.03902603 805.53007317 463.82704735 C805.55379666 465.24816901 805.57966346 466.66925688 805.60791206 468.09029579 C805.76155604 475.86393055 805.60297886 483.47146996 804.92314148 491.21543884 C804.48124971 497.38656565 804.54402819 503.56626096 804.55456543 509.75012207 C804.55388946 511.17208879 804.55291702 512.5940554 804.55166626 514.01602173 C804.55020591 516.96906657 804.55229154 519.92208083 804.55700684 522.87512207 C804.56273479 526.6440159 804.55939527 530.41283896 804.55343437 534.18173027 C804.54981035 537.10721362 804.55097526 540.03268035 804.55356216 542.95816422 C804.55422471 544.3479221 804.55342678 545.73768153 804.55108261 547.12743759 C804.54852214 549.069211 804.55312125 551.01098978 804.5579834 552.95275879 C804.55877899 554.05272186 804.55957458 555.15268494 804.56039429 556.28598022 C804.69691045 559.74980305 805.15937597 563.0838469 805.68737793 566.50793457 C805.82304304 568.44225125 805.92907686 570.37889965 806.00378418 572.31652832 C806.04567871 573.3845166 806.08757324 574.45250488 806.1307373 575.55285645 C806.18971191 577.23218262 806.18971191 577.23218262 806.24987793 578.94543457 C806.31465332 580.69630371 806.31465332 580.69630371 806.3807373 582.48254395 C806.59084201 588.49554061 806.73241965 594.49164767 806.68737793 600.50793457 C805.76674531 650.27925158 805.76674531 650.27925158 826.07409668 694.15637207 C830.83596264 698.66300785 835.58728861 702.1281723 841.68737793 704.50793457 C842.68124512 704.91656738 843.6751123 705.3252002 844.69909668 705.74621582 C855.11859198 709.77382005 865.67487209 711.70506326 876.73815918 712.99230957 C877.97952637 713.14184082 879.22089355 713.29137207 880.49987793 713.44543457 C881.59944824 713.55758301 882.69901855 713.66973145 883.83190918 713.78527832 C887.45510409 714.70222915 888.65826763 715.33865753 890.68737793 718.50793457 C891.24155059 721.87536416 891.19989393 725.16567628 891.12487793 728.57043457 C891.13196777 729.48115723 891.13905762 730.39187988 891.1463623 731.3302002 C891.08235884 738.01117674 891.08235884 738.01117674 889.40881503 740.11595184 C886.35965066 742.58155698 882.38795143 741.92730539 878.62716675 741.90666199 C877.68825234 741.91330881 876.74933793 741.91995564 875.78197157 741.92680389 C872.62061156 741.94552497 869.45962707 741.94282218 866.29821777 741.94030762 C864.0360714 741.9493212 861.77392992 741.95964742 859.51179504 741.97119141 C853.34671769 741.99888824 847.18173263 742.00806714 841.01660109 742.01404548 C834.54172097 742.02343209 828.06690935 742.04965282 821.59207153 742.0740509 C810.68504861 742.11285881 799.77804403 742.14114167 788.87097168 742.16149902 C777.71892536 742.18234118 766.56692524 742.20951992 755.41491699 742.2454834 C754.39117076 742.24878164 754.39117076 742.24878164 753.34674279 742.2521465 C749.91810486 742.26322893 746.48946731 742.27442635 743.06082988 742.28566301 C715.8984775 742.37439652 688.736101 742.4490369 661.57363236 742.49060541 C655.95596204 742.49985727 650.33838022 742.51535389 644.7207545 742.53957075 C641.6091241 742.55251652 638.49748982 742.56179237 635.38584447 742.57029879 C633.37202343 742.57719822 631.35822217 742.58928759 629.34442711 742.6016264 C613.42829031 742.63701783 613.42829031 742.63701783 609.71447754 740.22839355 C607.6102513 736.70367705 608.21882251 732.55964415 608.24987793 728.57043457 C608.22989746 727.6635791 608.20991699 726.75672363 608.18933105 725.8223877 C608.18997559 724.94646973 608.19062012 724.07055176 608.19128418 723.16809082 C608.18943115 722.3702417 608.18757813 721.57239258 608.18566895 720.75036621 C608.88929867 717.60543239 610.15082242 716.45463073 612.68737793 714.50793457 C615.30603027 713.75012207 615.30603027 713.75012207 618.27331543 713.38293457 C619.36241211 713.23614258 620.45150879 713.08935059 621.5736084 712.93811035 C622.72490234 712.79615234 623.87619629 712.65419434 625.06237793 712.50793457 C642.05431429 710.13972856 660.71346578 707.09630679 672.68737793 693.50793457 C674.96260561 690.30316019 676.82885064 686.96627371 678.68737793 683.50793457 C679.14112793 682.81828613 679.59487793 682.1286377 680.06237793 681.41809082 C693.64603374 659.0616573 688.99462443 619.87933195 689.01871121 594.66613996 C689.02458701 590.79228927 689.04179484 586.91848394 689.05740356 583.04466248 C689.08622269 575.45612935 689.104834 567.86760528 689.11974367 560.27903342 C689.13227943 554.02056885 689.14892172 547.76212643 689.16825294 541.50367928 C689.17104605 540.59938635 689.17383915 539.69509342 689.1767169 538.76339768 C689.18242525 536.92243954 689.18814497 535.08148142 689.19387589 533.24052335 C689.24417086 516.95947797 689.2848584 500.67842243 689.32043457 484.39733887 C689.35407238 469.00440456 689.39533885 453.61151752 689.44543457 438.21862793 C689.70955794 356.71886241 689.79009052 275.22360971 689.3016932 193.72447705 C689.28002905 190.10433456 689.25902572 186.48418925 689.2386663 182.86403918 C689.18142791 172.68909794 689.11904843 162.5142183 689.04686904 152.33937144 C689.02517217 149.26795362 689.00556094 146.19653378 688.98778367 143.12509084 C688.96344575 138.95972696 688.93109062 134.79446647 688.8976593 130.62916565 C688.88829166 128.78686006 688.88829166 128.78686006 688.87873477 126.90733618 C688.86849302 125.80408438 688.85825127 124.70083258 688.84769917 123.5641489 C688.84084073 122.60478257 688.8339823 121.64541623 688.82691604 120.65697819 C688.9259064 118.52652814 688.9259064 118.52652814 687.68737793 117.50793457 C681.11449535 131.69352554 674.89567176 145.99190467 668.94616699 160.44934082 C663.81128715 172.92602327 658.67331332 185.40328264 653.24987793 197.75793457 C652.93196289 198.49060547 652.61404785 199.22327637 652.28649902 199.97814941 C651.07894778 202.69919952 649.93447949 205.19316706 648.08972168 207.54309082 C646.09336815 210.34021011 645.51266429 213.41292214 644.68737793 216.69543457 C641.67746831 227.69234574 636.87658934 237.87693165 632.17224121 248.23205566 C623.93345434 266.40832042 616.26127158 284.7433996 609.03112793 303.33996582 C600.50824142 325.22034141 600.50824142 325.22034141 595.67785645 335.83996582 C592.85921485 342.04972954 590.23192364 348.33171829 587.62487793 354.63293457 C583.38471077 364.87335348 579.07441902 375.07829605 574.47644043 385.16418457 C572.8742109 388.68186144 571.45617463 392.12610269 570.31237793 395.82043457 C569.18407002 399.36914492 567.69622904 402.47753765 565.93737793 405.75793457 C563.11229115 411.22719125 561.18177565 416.77414907 559.31237793 422.63293457 C556.92376944 430.07892173 554.21698256 437.18301624 550.9473877 444.28259277 C547.84442821 451.04847194 545.03481581 457.91823451 542.24987793 464.82043457 C538.63081026 473.77074363 534.95310344 482.68716779 531.11486816 491.54577637 C528.96607271 496.50804724 526.85938964 501.48503813 524.78894043 506.48059082 C524.29458496 507.66773682 523.80022949 508.85488281 523.29089355 510.07800293 C522.32275099 512.4057975 521.36028715 514.73596396 520.4041748 517.06872559 C519.74385254 518.65125122 519.74385254 518.65125122 519.07019043 520.26574707 C518.68234375 521.20563477 518.29449707 522.14552246 517.89489746 523.1138916 C516.68737793 525.50793457 516.68737793 525.50793457 515.06628418 527.04626465 C513.1747154 529.05136774 513.31915892 530.41781263 513.24206543 533.13684082 C512.83845026 538.57973909 511.2090529 542.59437649 508.81237793 547.44543457 C507.99142815 549.18548569 507.17528083 550.92780818 506.36315918 552.67199707 C505.71274658 554.06853516 505.71274658 554.06853516 505.04919434 555.49328613 C502.54449622 561.037928 500.27852936 566.67999191 497.99987793 572.32043457 C497.53065918 573.47994629 497.06144043 574.63945801 496.57800293 575.83410645 C493.680315 583.01265629 490.80680853 590.20086698 487.93737793 597.39074707 C485.38882319 603.74620545 482.81343718 610.08403765 479.94909668 616.30480957 C475.77815796 625.40591319 472.10746347 634.59682067 468.68737793 644.00793457 C465.36827977 653.12854494 461.82545681 662.0311507 457.79284668 670.85559082 C455.27906947 676.3623603 452.91902847 681.93247523 450.56237793 687.50793457 C449.88368652 689.11052124 449.88368652 689.11052124 449.19128418 690.7454834 C446.41883487 697.32005369 443.69922317 703.91397126 441.01159668 710.52355957 C440.38094301 712.07045208 439.75024646 713.61732711 439.11950684 715.16418457 C437.89142596 718.17676198 436.67247944 721.19282714 435.45837402 724.21105957 C434.8904834 725.60701742 434.32230039 727.00285638 433.75378418 728.39855957 C433.50311691 729.02877014 433.25244965 729.65898071 432.9941864 730.30828857 C428.84446643 740.42939032 428.84446643 740.42939032 424.68737793 742.50793457 C420.60207836 742.78835743 416.51514259 742.82152602 412.42102051 742.85803223 C411.06212207 742.87457054 409.70330988 742.90183378 408.34484863 742.94006348 C406.38013107 742.99503064 404.41450268 743.01360346 402.44909668 743.03137207 C401.27306885 743.05119141 400.09704102 743.07101074 398.88537598 743.09143066 C394.68141833 742.32439053 393.32950271 740.81001717 390.68737793 737.50793457 C389.17687988 734.85852051 389.17687988 734.85852051 387.92565918 731.99230957 C387.45192871 730.91924561 386.97819824 729.84618164 386.4901123 728.74060059 C385.75244629 727.01668091 385.75244629 727.01668091 384.99987793 725.25793457 C384.47587402 724.05644775 383.95187012 722.85496094 383.4119873 721.61706543 C379.58784397 712.81196997 375.99486264 703.91742111 372.47106934 694.98840332 C364.9231599 675.90489684 356.60171464 657.14283899 348.13928223 638.45031738 C345.25183956 632.06182191 342.46305942 625.64626825 339.78869629 619.16564941 C338.38510445 615.77848455 336.91814638 612.42459947 335.43737793 609.07043457 C330.15677085 597.05834231 324.97648046 585.0016046 319.91882324 572.8939209 C315.87629219 563.22256274 311.7009433 553.61121055 307.49987793 544.00793457 C307.19973785 543.3212973 306.89959778 542.63466003 306.59036255 541.92721558 C303.79204161 535.52857793 300.98657712 529.13482249 298.07800293 522.78527832 C295.47840179 517.09472981 293.0459718 511.33875555 290.62487793 505.57043457 C285.15959552 492.60093506 279.62314926 479.66274895 274.07019043 466.73059082 C272.8050873 463.78225726 271.54238258 460.83291609 270.28112793 457.88293457 C263.91271207 442.99010713 257.45703804 428.13570922 250.97253418 413.29309082 C250.52708252 412.27199219 250.08163086 411.25089355 249.62268066 410.19885254 C248.77843753 408.26371577 247.93298999 406.32910377 247.08605957 404.3951416 C244.81638339 399.19015623 242.65378705 393.95533346 240.56286621 388.67614746 C239.56371058 386.20166303 238.4630661 383.79040274 237.31237793 381.38293457 C235.25682466 376.94069027 233.53305771 372.42174481 231.87487793 367.82043457 C229.5946639 361.53603329 226.90945024 355.59706352 223.7545166 349.70251465 C221.18461589 344.81377634 219.1470674 339.76402178 217.12347412 334.62730408 C214.05396286 326.85262851 210.74320896 319.18436462 207.43737793 311.50793457 C206.77090168 309.95590925 206.10456232 308.40382513 205.43835449 306.85168457 C201.80347727 298.38953653 198.13385542 289.94336905 194.43737793 281.50793457 C190.31710455 272.1036334 186.42774847 262.61162187 182.61608887 253.07824707 C179.54301963 245.43634631 176.17997701 237.96623858 172.68737793 230.50793457 C167.80638254 219.87433747 163.08586356 209.1821895 158.57116699 198.38806152 C152.53473063 183.87083808 152.53473063 183.87083808 145.74987793 169.69543457 C141.95668897 162.27220456 138.83944406 154.55951424 135.66711426 146.85632324 C134.90001472 145.01761642 134.11591577 143.18599979 133.32536316 141.35725403 C131.65104739 137.45406787 130.06846354 133.51707343 128.49987793 129.57043457 C128.22724121 128.88658691 127.95460449 128.20273926 127.67370605 127.49816895 C127.01079518 125.83507674 126.34897078 124.17155154 125.68737793 122.50793457 C124.36602799 164.09985656 124.53869548 205.7038875 124.55207848 247.31140787 C124.5543812 254.67321707 124.55463944 262.03502396 124.55356216 269.39683342 C124.55333231 270.985324 124.55333231 270.985324 124.55309782 272.60590531 C124.55277802 274.75879638 124.55245381 276.91168745 124.55212523 279.06457853 C124.54929639 299.09111089 124.55251808 319.11763862 124.5579256 339.14417022 C124.56240764 356.27397222 124.56160117 373.40376745 124.55700684 390.53356934 C124.55164301 410.54111099 124.54955384 430.54864864 124.5526191 450.55619091 C124.55293759 452.69227056 124.55325196 454.82835021 124.55356216 456.96442986 C124.55371644 458.01485203 124.55387072 459.06527421 124.55402967 460.14752736 C124.55488818 467.5010123 124.55344672 474.85449466 124.55108261 482.2079792 C124.54826497 491.16650676 124.54906476 500.12502556 124.55436336 509.08355213 C124.55697147 513.64130303 124.55805486 518.1990394 124.5547142 522.75679016 C124.51275916 547.20760976 124.51275916 547.20760976 125.4562254 571.63661575 C125.74437454 576.4625079 125.86654926 581.28036496 125.93347168 586.11340332 C125.96636821 587.87708094 125.99958047 589.6407527 126.03308105 591.40441895 C126.08034756 594.05599615 126.12505659 596.70754249 126.16418457 599.35925293 C126.32933409 610.14341744 126.85290392 620.73672119 128.20251465 631.44152832 C128.65904262 635.07786369 128.95639208 638.71509083 129.22692871 642.3694458 C130.62902071 660.85866645 138.00680048 683.78233236 152.11315918 696.52355957 C167.0276283 708.02060102 184.66038802 712.21856054 202.97277832 715.12805176 C204.22562622 715.33736328 204.22562622 715.33736328 205.50378418 715.55090332 C206.24056396 715.66458252 206.97734375 715.77826172 207.7364502 715.89538574 C210.15969639 716.65623228 211.17806911 717.46931953 212.68737793 719.50793457 C213.31022123 722.62365645 213.15092862 725.77435527 213.12487793 728.94543457 C213.1448584 729.80459473 213.16483887 730.66375488 213.1854248 731.5489502 C213.18445801 732.79515137 213.18445801 732.79515137 213.18347168 734.06652832 C213.18532471 734.82248291 213.18717773 735.5784375 213.18908691 736.3572998 C212.46794941 739.44854081 211.15873015 740.5420347 208.68737793 742.50793457 C205.66313934 743.0029192 205.66313934 743.0029192 202.04858398 742.99568176 C201.04871893 743.00186666 201.04871893 743.00186666 200.02865458 743.00817651 C197.79403504 743.01710735 195.56058835 742.99744259 193.3260498 742.97790527 C191.72199359 742.97841424 190.11793712 742.98067099 188.5138855 742.98454285 C184.14337289 742.98997755 179.77328223 742.97048041 175.40284538 742.94644189 C170.78696933 742.92505565 166.17109351 742.92573481 161.55517578 742.92375183 C153.76030323 742.91728919 145.96558661 742.89603467 138.17077637 742.86462402 C127.3413941 742.82102937 116.51210486 742.80501512 105.68264771 742.79427171 C83.35045943 742.77008497 61.01891681 742.68201356 38.68737793 742.50793457 C37.9871199 742.50248847 37.28686188 742.49704237 36.56538391 742.49143124 C29.10839679 742.43196342 21.65223524 742.35288709 14.19612122 742.22310448 C12.36520992 742.19212909 10.53421659 742.16561422 8.70317078 742.14400673 C6.31125844 742.11370947 3.9206003 742.06476259 1.5291748 742.00866699 C0.25844116 741.98447189 -1.01229248 741.96027679 -2.3215332 741.93534851 C-5.31262207 741.50793457 -5.31262207 741.50793457 -7.2159729 740.10870361 C-8.67509411 737.97883736 -8.70014178 736.55121149 -8.71105957 733.98059082 C-8.71492676 733.10596191 -8.71879395 732.23133301 -8.72277832 731.3302002 C-8.71117676 730.41947754 -8.6995752 729.50875488 -8.68762207 728.57043457 C-8.69922363 727.6635791 -8.7108252 726.75672363 -8.72277832 725.8223877 C-8.71697754 724.50851074 -8.71697754 724.50851074 -8.71105957 723.16809082 C-8.70767578 722.3702417 -8.70429199 721.57239258 -8.70080566 720.75036621 C-8.21721222 717.95677766 -7.21932289 716.57952843 -5.31262207 714.50793457 C-2.85168457 713.53137207 -2.85168457 713.53137207 0.06237793 712.88293457 C1.13487793 712.64059082 2.20737793 712.39824707 3.31237793 712.14855957 C6.55663095 711.53275228 9.78936743 711.06612714 13.06237793 710.63293457 C28.71392664 708.33288619 43.16579388 701.64623509 53.49987793 689.52355957 C73.71331633 661.65789092 73.80926842 618.56852967 74.47644043 585.53527832 C74.59401014 580.06999854 74.83504032 574.62987948 75.16752625 569.17402649 C75.71411375 559.72675687 76.0002675 550.28301763 76.21594238 540.82312012 C76.23687069 539.93187195 76.25779899 539.04062378 76.27936149 538.1223681 C76.44411328 531.06753375 76.59389848 524.01243381 76.73815918 516.95715332 C76.76033579 515.88034483 76.7825124 514.80353633 76.80536103 513.69409728 C78.10804088 449.77775693 77.95738644 385.85354541 77.89057411 321.92715143 C77.87740927 309.24989267 77.87206598 296.57265115 77.87268066 283.89538574 C77.87272062 283.0533842 77.87276058 282.21138265 77.87280174 281.34386591 C77.8728421 280.50289717 77.87288245 279.66192842 77.87292403 278.79547578 C77.87362013 263.07144974 77.86770914 247.34743192 77.85877081 231.62340859 C77.85622958 226.94555336 77.85483731 222.2676996 77.85444001 217.58984371 C77.87112858 175.76406815 77.87112858 175.76406815 77.23937988 133.94421387 C77.21035161 132.67505581 77.21035161 132.67505581 77.1807369 131.3802582 C77.05505516 126.08785057 76.89464325 120.79778518 76.68737793 115.50793457 C76.65731462 114.73970438 76.62725132 113.97147419 76.596277 113.1799643 C76.4999942 110.87457162 76.3897329 108.57031317 76.27397156 106.26582336 C76.24468954 105.58067679 76.21540753 104.89553022 76.18523818 104.18962163 C75.88505929 98.77903684 74.56819915 94.1022955 72.65612793 89.06262207 C71.82978234 86.88346877 71.23977852 84.84093536 70.74987793 82.57043457 C66.42428799 64.51579832 55.91414436 50.02283517 40.68737793 39.50793457 C38.37525005 38.29558287 36.14678382 37.41138979 33.68737793 36.50793457 C32.69737793 35.84793457 31.70737793 35.18793457 30.68737793 34.50793457 C28.18767128 33.77407574 25.71788 33.11240429 23.18737793 32.50793457 C22.46904785 32.3335083 21.75071777 32.15908203 21.01062012 31.97937012 C12.09781494 29.8468768 3.50025776 28.31603491 -5.68371582 28.04699707 C-8.31262207 27.50793457 -8.31262207 27.50793457 -10.62902832 26.06262207 C-13.19259716 22.17265914 -12.89511324 18.56557171 -12.81262207 14.00793457 C-12.82809082 13.15328613 -12.84355957 12.2986377 -12.85949707 11.41809082 C-12.85434082 10.59180176 -12.84918457 9.7655127 -12.84387207 8.91418457 C-12.83936035 8.16459473 -12.83484863 7.41500488 -12.8302002 6.6427002 C-11.21846471 -0.00494842 -5.83419131 -0.06580881 0 0 Z " fill="#F0E1BA" transform="translate(1876.3126220703125,14.4920654296875)"/>
<path d="M0 0 C3.06720716 0.00461417 6.13401614 -0.00224021 9.20117188 -0.02050781 C36.56344859 -0.18177309 62.84294435 1.6740467 89.62597656 7.76196289 C92.88147384 8.48413306 96.15527011 9.08698447 99.43457031 9.69067383 C131.2948002 16.11892308 162.3521781 26.68383133 192.62792969 38.36791992 C196.43557951 39.81479704 200.27519417 41.16478426 204.12207031 42.50317383 C210.12383948 44.59229362 216.07266677 46.79457206 222.01000977 49.05981445 C227.97447341 51.31116866 234.01646362 53.30778032 240.09643555 55.22387695 C245.49207516 56.96373771 249.86091021 58.42393367 253.12207031 63.31567383 C253.33570332 66.05320818 253.43336765 68.69225678 253.44091797 71.43164062 C253.45095793 72.26297359 253.46099789 73.09430655 253.47134209 73.95083141 C253.50237012 76.72217805 253.51929312 79.49342619 253.53613281 82.26489258 C253.55497699 84.21591985 253.57464542 86.16693931 253.59509277 88.11795044 C253.6471333 93.33517604 253.68670523 98.55242556 253.72336578 103.76977921 C253.75490345 108.07164576 253.7930997 112.37344238 253.83132744 116.67525387 C253.94076637 129.0216308 254.02960149 141.3680835 254.10595703 153.71470642 C254.12071987 156.09768934 254.13596733 158.48066859 254.15136719 160.86364746 C254.23853461 174.56070349 254.27951197 188.25584935 254.14489746 201.95269775 C254.12936504 203.56055242 254.11551314 205.168424 254.10314941 206.77630615 C254.06666114 211.49851609 254.00887947 216.21937773 253.91253662 220.94076538 C253.873813 222.97416415 253.85131876 225.00785253 253.82958984 227.04150391 C253.79720215 228.21994873 253.76481445 229.39839355 253.73144531 230.61254883 C253.71049805 231.62671875 253.68955078 232.64088867 253.66796875 233.68579102 C252.97357934 237.03103374 251.78879371 238.23537709 249.12207031 240.31567383 C237.39682925 242.96647593 223.27519905 242.19324868 211.93457031 238.19067383 C201.76952633 231.41397784 199.21649751 223.71043408 196.01171875 212.36694336 C188.40861546 186.29021863 179.14032049 160.66471837 165.12207031 137.31567383 C164.72020508 136.63601562 164.31833984 135.95635742 163.90429688 135.25610352 C145.2984158 103.90646828 118.1841052 73.1198942 83.38769531 59.59301758 C80.98814641 58.65443804 78.64605352 57.67700823 76.29394531 56.63208008 C28.50613872 35.62957813 -28.41875793 37.07724759 -76.81542969 55.06567383 C-97.37175724 63.11496957 -116.84976223 74.06167546 -132.87792969 89.31567383 C-134.16223043 90.4697572 -135.45365413 91.61597559 -136.75292969 92.75317383 C-137.39359375 93.3177832 -138.03425781 93.88239258 -138.69433594 94.46411133 C-140.31700478 95.84004162 -141.97707442 97.17211009 -143.65527344 98.47973633 C-151.75797059 104.88263987 -157.80160709 111.99678438 -163.87792969 120.31567383 C-164.61011719 121.30180664 -165.34230469 122.28793945 -166.09667969 123.30395508 C-168.04849742 125.9576765 -169.96791079 128.63176796 -171.87792969 131.31567383 C-172.41417969 132.05301758 -172.95042969 132.79036133 -173.50292969 133.55004883 C-179.70706646 142.20004722 -185.31062236 151.24844573 -190.87792969 160.31567383 C-191.31540527 161.0162793 -191.75288086 161.71688477 -192.20361328 162.4387207 C-205.94244619 184.64007291 -213.75940631 210.48433333 -220.77929688 235.45288086 C-221.71160256 238.75715299 -222.69063071 242.04582732 -223.68006897 245.33337402 C-229.16730349 263.63446352 -232.64595584 281.45503144 -234.40161133 300.49121094 C-234.75200152 304.20604523 -235.1837863 307.90676147 -235.63354492 311.61083984 C-237.76867049 329.69315718 -238.31633687 347.43842309 -238.20050049 365.61694336 C-238.18709025 368.4615385 -238.19234551 371.30597646 -238.19735718 374.15058899 C-238.23162896 399.8468738 -236.99603029 425.42997957 -233.75292969 450.94067383 C-233.65010681 451.76277344 -233.54728394 452.58487305 -233.44134521 453.43188477 C-227.96168882 496.57069799 -215.68157604 538.12836238 -196.87792969 577.31567383 C-196.32057129 578.48018066 -196.32057129 578.48018066 -195.75195312 579.66821289 C-188.56044506 594.59921787 -180.64792782 608.90520845 -170.87792969 622.31567383 C-170.12382812 623.35723633 -169.36972656 624.39879883 -168.59277344 625.47192383 C-163.30846609 632.65060551 -157.74689167 639.44671185 -151.44042969 645.75317383 C-149.03773196 648.15587155 -146.81127299 650.64206325 -144.56542969 653.19067383 C-141.23890093 656.90630232 -137.83732259 660.27434961 -134.02246094 663.47973633 C-131.50083145 665.63850839 -129.10822494 667.91633676 -126.69042969 670.19067383 C-120.80272453 675.557199 -114.52278764 679.95932784 -107.87792969 684.31567383 C-106.53794922 685.20706055 -106.53794922 685.20706055 -105.17089844 686.11645508 C-102.43510564 687.90066777 -99.66854926 689.61847644 -96.87792969 691.31567383 C-95.75644531 692.00274414 -94.63496094 692.68981445 -93.47949219 693.39770508 C-78.15621401 702.52698268 -61.1442623 709.62545326 -44.04101562 714.67651367 C-42.45269004 715.14584058 -40.86786668 715.62706237 -39.28515625 716.11499023 C-10.5007997 724.91102701 22.06571193 731.03309408 52.09570312 726.60083008 C55.26196089 726.15526513 58.44333563 725.84682082 61.62207031 725.50317383 C87.75967479 722.26871075 114.22769727 715.88063066 138.12207031 704.69067383 C139.05293457 704.25996582 139.98379883 703.82925781 140.94287109 703.38549805 C146.63419106 700.56585735 150.42390254 697.47597906 154.12207031 692.31567383 C154.86457031 691.28442383 155.60707031 690.25317383 156.37207031 689.19067383 C161.63261605 679.31983386 160.4205194 666.24547531 160.41259766 655.33984375 C160.41859676 653.67245182 160.42540543 652.00506264 160.43295288 650.337677 C160.45048798 645.84316193 160.45530318 641.34872322 160.45658445 636.85417724 C160.4580147 634.03254597 160.46230087 631.21093357 160.46757889 628.38930702 C160.48604391 618.50610772 160.49425468 608.62296207 160.49267578 598.73974609 C160.4914781 589.59274974 160.51251602 580.44599075 160.54416311 571.29905432 C160.57051371 563.39528671 160.58103516 555.49159566 160.57976496 547.58778459 C160.57926044 542.89001839 160.58465482 538.19246305 160.60612106 533.49474144 C160.73239563 503.77305534 160.77066258 472.27174681 144.12207031 446.31567383 C143.661875 445.5912207 143.20167969 444.86676758 142.72753906 444.12036133 C139.01375417 438.73895402 134.46964365 435.01783998 129.12207031 431.31567383 C128.40664063 430.80133789 127.69121094 430.28700195 126.95410156 429.75708008 C101.6326432 412.97780044 62.87458175 410.0734813 33.70996094 415.78833008 C13.49981699 420.37768152 -6.46977601 428.92159539 -18.87792969 446.31567383 C-27.05967118 459.57831415 -29.88108095 473.56739435 -26.31542969 488.69067383 C-23.87779856 497.6267772 -19.7032782 507.28531603 -12.15136719 513.07739258 C-2.53356285 518.31595611 8.95299829 520.738411 19.73486328 521.95751953 C26.13420968 522.69901138 30.95182995 523.37644307 36.12207031 527.31567383 C38.82036775 532.71226869 37.92326567 541.72924233 36.18066406 547.35473633 C31.72763034 556.59582826 24.5794243 562.35135463 15.09082031 565.93676758 C9.53482029 567.71815012 4.16798106 567.81097696 -1.62792969 567.75317383 C-3.21855225 567.74181396 -3.21855225 567.74181396 -4.84130859 567.73022461 C-21.97825676 567.37030404 -34.9993443 560.61849441 -46.87792969 548.31567383 C-64.45061442 528.71286095 -68.24534555 505.87622153 -66.87792969 480.31567383 C-64.66972323 456.51078152 -54.64018595 435.10137381 -37.87792969 418.31567383 C-36.63462891 416.9312207 -36.63462891 416.9312207 -35.36621094 415.51879883 C-18.98771998 397.7608025 4.85535058 388.78227838 28.12207031 384.31567383 C28.93882957 384.13931019 29.75558882 383.96294655 30.59709835 383.78123856 C35.77254808 383.09768508 40.90823021 383.17126337 46.1231842 383.17523193 C47.34168153 383.17226081 48.56017885 383.16928969 49.81560034 383.16622853 C53.1900758 383.15906328 56.56450034 383.1563704 59.93897974 383.15563107 C63.58113651 383.15377618 67.22328233 383.14622691 70.86543274 383.13949585 C78.82383551 383.12593262 86.78223324 383.11989164 94.74064565 383.11548519 C99.70939125 383.11272075 104.67813491 383.10848316 109.6468792 383.10398102 C123.40422601 383.09179359 137.16157128 383.08149154 150.91892338 383.07810593 C152.2387428 383.07777658 152.2387428 383.07777658 153.58522525 383.07744057 C154.46719385 383.0772223 155.34916246 383.07700402 156.25785738 383.07677913 C158.04503318 383.07633566 159.83220897 383.0758891 161.61938477 383.07543945 C162.50588341 383.07521802 163.39238205 383.07499659 164.30574428 383.07476845 C178.68356322 383.07081687 193.06133158 383.05334952 207.43913097 383.03007993 C222.20069907 383.00638187 236.96224177 382.99390487 251.72382921 382.99273801 C260.01205639 382.99182066 268.30021757 382.98605276 276.58842659 382.9679184 C283.6423888 382.95253863 290.69626461 382.94738454 297.75024039 382.9556565 C301.3498653 382.95956986 304.94931607 382.95860001 308.54891968 382.94459915 C312.44866887 382.92956917 316.3481714 382.9377059 320.24794006 382.94818115 C321.95920856 382.93609655 321.95920856 382.93609655 323.70504814 382.92376781 C324.74935507 382.93035765 325.79366201 382.93694749 326.8696146 382.94373703 C327.76971683 382.94313994 328.66981906 382.94254285 329.59719712 382.94192767 C333.63290943 383.53931687 336.27984083 385.47344434 339.12207031 388.31567383 C339.34857962 390.9661269 339.44636857 393.47828534 339.43457031 396.12817383 C339.45068359 396.84038086 339.46679688 397.55258789 339.48339844 398.28637695 C339.48757813 402.8046211 339.00889476 405.78806683 336.12207031 409.31567383 C331.86518009 411.1505403 327.65526631 412.21214872 323.13769531 413.17504883 C314.29524551 415.07769047 306.74004039 417.17615292 299.12207031 422.31567383 C298.49300781 422.72043945 297.86394531 423.12520508 297.21582031 423.54223633 C285.4754393 432.24079135 281.0476078 446.71358673 278.12207031 460.31567383 C277.95956535 460.98479357 277.79706039 461.65391331 277.62963104 462.3433094 C276.91846406 466.50802766 276.75550005 470.65421463 276.57141113 474.87130737 C276.5083562 476.26559505 276.5083562 476.26559505 276.44402742 477.68805015 C276.03840839 487.26740673 275.9553776 496.83891995 275.93261719 506.42553711 C275.92464394 508.33194652 275.91625376 510.23835421 275.90748596 512.14476013 C275.88964534 516.20083224 275.87455637 520.25690114 275.86170959 524.3129921 C275.84122877 530.73626363 275.81362094 537.15949329 275.78503418 543.58273315 C275.72030954 558.36007198 275.66444226 573.13744154 275.60904694 587.91481781 C275.55807003 601.50101386 275.50516322 615.08719435 275.44452143 628.67335117 C275.416324 635.05034449 275.3926776 641.427333 275.37259674 647.80435681 C275.35915004 651.77204243 275.34174362 655.73970368 275.32328606 659.70736885 C275.31557536 661.53785012 275.30948624 663.36833909 275.30519295 665.19883156 C275.24355388 690.50212233 275.24355388 690.50212233 272.02050781 695.71411133 C268.76825076 698.6332531 265.54891027 700.81589122 261.74707031 702.94067383 C261.01157959 703.36106934 260.27608887 703.78146484 259.51831055 704.21459961 C234.83694798 718.17458857 209.28832368 730.37002154 182.73730469 740.33374023 C180.30378332 741.24744663 177.87657547 742.17617783 175.45019531 743.10864258 C133.20755785 759.18694981 91.01851013 767.83238223 46.12207031 771.31567383 C44.74510986 771.42588867 44.74510986 771.42588867 43.34033203 771.53833008 C-9.18784815 775.59306129 -9.18784815 775.59306129 -26.6940918 770.82055664 C-29.53927115 770.16277789 -32.28894095 770.05880929 -35.20605469 769.92114258 C-37.09976807 769.8220459 -37.09976807 769.8220459 -39.03173828 769.72094727 C-40.03318878 769.66867981 -40.03318878 769.66867981 -41.05487061 769.61535645 C-55.53946626 768.83152936 -69.65148109 767.24920807 -83.87792969 764.31567383 C-84.8635791 764.11490234 -85.84922852 763.91413086 -86.86474609 763.70727539 C-119.51187618 756.88454558 -152.80357556 744.78463684 -181.87792969 728.31567383 C-183.45553395 727.53318212 -185.0385874 726.7615402 -186.62792969 726.00317383 C-198.51813538 720.11792101 -210.29424614 713.32352711 -220.87792969 705.31567383 C-221.84214844 704.59250977 -222.80636719 703.8693457 -223.79980469 703.12426758 C-227.18986885 700.56019024 -230.53872971 697.94551943 -233.87792969 695.31567383 C-234.50505859 694.82292969 -235.1321875 694.33018555 -235.77832031 693.82250977 C-245.9502842 685.79548144 -255.55754188 677.31485356 -264.87792969 668.31567383 C-265.40290039 667.81261719 -265.92787109 667.30956055 -266.46875 666.79125977 C-272.83485589 660.67206167 -278.50456828 654.31213314 -283.87792969 647.31567383 C-284.72630428 646.24386593 -285.57668107 645.17364078 -286.42871094 644.10473633 C-297.3667409 630.36168149 -307.68042593 616.29183878 -316.87792969 601.31567383 C-317.28865723 600.64826172 -317.69938477 599.98084961 -318.12255859 599.29321289 C-335.67567876 570.32314183 -347.33535859 536.64266661 -356.87792969 504.31567383 C-357.19004395 503.26557129 -357.5021582 502.21546875 -357.82373047 501.13354492 C-362.18262545 486.12717648 -364.83434602 471.16777717 -366.75292969 455.69067383 C-366.8565683 454.85817108 -366.96020691 454.02566833 -367.06698608 453.16793823 C-369.60844446 432.3782281 -370.09057918 411.70713073 -370.11816406 390.77978516 C-370.12252247 387.94827202 -370.13634165 385.11706809 -370.15917969 382.28564453 C-370.35587596 357.33948912 -369.003974 332.73197602 -364.12792969 308.19067383 C-363.93901154 307.21514557 -363.93901154 307.21514557 -363.74627686 306.21990967 C-361.07194537 292.4242678 -357.71432182 278.83313572 -353.87792969 265.31567383 C-353.57129395 264.22561035 -353.2646582 263.13554687 -352.94873047 262.01245117 C-339.85686834 216.00429494 -317.52220526 172.80541487 -287.87792969 135.31567383 C-286.68962357 133.77462842 -285.50205435 132.23301435 -284.31542969 130.69067383 C-283.17290805 129.22974452 -282.02689681 127.77153945 -280.87792969 126.31567383 C-280.18054688 125.43137695 -279.48316406 124.54708008 -278.76464844 123.63598633 C-274.4229223 118.22195132 -269.90743989 113.20747267 -264.93261719 108.37036133 C-263.10770181 106.54544595 -261.45295687 104.68226095 -259.81542969 102.69067383 C-257.15985769 99.51853852 -254.22508861 96.87096447 -251.07324219 94.19848633 C-248.65977346 92.12857187 -246.33721201 89.97433616 -244.00292969 87.81567383 C-240.06658251 84.26219324 -236.00631533 81.20851111 -231.61621094 78.24536133 C-229.00748609 76.4069732 -226.5345497 74.47018056 -224.05297852 72.46704102 C-215.72933664 65.75386069 -206.96210882 59.94467746 -197.87792969 54.31567383 C-197.22646973 53.91074707 -196.57500977 53.50582031 -195.90380859 53.08862305 C-174.29554465 39.722061 -151.15365124 27.99010611 -126.87792969 20.31567383 C-125.77022217 19.94829102 -125.77022217 19.94829102 -124.64013672 19.57348633 C-100.47672065 11.57140886 -75.13253307 5.55910506 -49.87792969 2.31567383 C-49.21548752 2.22582214 -48.55304535 2.13597046 -47.87052917 2.043396 C-31.95974353 -0.06722963 -16.01715784 -0.02616152 0 0 Z " fill="#F0E1BA" transform="translate(369.8779296875,-0.315673828125)"/>
<path d="M0 0 C1.21042969 -0.03996094 2.42085937 -0.07992188 3.66796875 -0.12109375 C7.93497595 0.63689635 9.16111589 2.03298187 11.8125 5.4375 C13.48674119 8.27191349 14.88540079 11.19347452 16.25 14.1875 C16.64050537 15.02949951 17.03101074 15.87149902 17.43334961 16.73901367 C20.76405293 24.05639508 23.47208269 31.50521017 26.02490234 39.12109375 C30.20795351 51.42388031 34.79427171 63.58426767 39.67578125 75.62524414 C42.43628483 82.44589958 45.06875842 89.31133867 47.6875 96.1875 C50.93935876 104.71043127 54.32512305 113.1594696 57.875 121.5625 C64.83185061 138.05994192 70.90598638 154.88005309 77.00439453 171.70922852 C81.48773092 184.07933448 86.16413109 196.37389756 90.85375977 208.66699219 C92.83253162 213.85637911 94.80184853 219.04904035 96.75 224.25 C96.98420654 224.87438965 97.21841309 225.4987793 97.4597168 226.14208984 C98.93789996 230.08750935 100.40491572 234.0369366 101.8671875 237.98828125 C105.59040177 248.01873164 109.39916791 257.99221164 113.5 267.875 C116.38443529 274.82746465 119.06893244 281.79794505 121.51342773 288.91601562 C124.23973542 296.79673436 127.33428481 304.52952859 130.39453125 312.28515625 C132.88913048 318.61136258 135.3206407 324.96101965 137.75 331.3125 C141.04914238 339.92738955 144.42624606 348.50646168 147.875 357.0625 C151.52061021 366.11530531 155.01999837 375.21242086 158.42260742 384.35913086 C161.12950678 391.63336796 163.89264914 398.884119 166.6875 406.125 C170.23558018 415.3231134 173.75629094 424.53109212 177.25 433.75 C177.70383057 434.94729736 178.15766113 436.14459473 178.62524414 437.37817383 C180.75534402 443.00038872 182.88307423 448.62349305 185.00779724 454.2477417 C191.57797253 471.66727701 191.57797253 471.66727701 198.421875 488.98046875 C200.35984855 493.7981839 202.23327239 498.64037948 204.10253906 503.48510742 C205.8616357 508.03193406 207.66066626 512.56148013 209.4765625 517.0859375 C213.20920025 526.39282676 216.86292481 535.73054683 220.51611328 545.06884766 C221.67760717 548.0372174 222.84070844 551.00495386 224.00390625 553.97265625 C228.08432347 564.39368077 232.11627488 574.83119203 236.08778381 585.29420471 C238.53175239 591.72433205 241.04436792 598.12338884 243.625 604.5 C246.30028239 611.12952607 248.9496535 617.76566255 251.5078125 624.44140625 C258.84474094 643.54575014 267.00437854 661.94105925 277 679.8125 C277.69403931 681.06921509 277.69403931 681.06921509 278.40209961 682.35131836 C284.33412237 692.68159706 291.93866692 699.89660635 301.8125 706.4375 C302.61558594 706.97246094 303.41867187 707.50742187 304.24609375 708.05859375 C314.19264777 714.34664514 325.04606738 718.57249312 336.39501953 721.52563477 C341.08543087 722.84574418 343.75583102 724.65223953 346.8125 728.4375 C348.27292516 731.89072206 348.0503062 735.72639756 348.125 739.4375 C348.16238281 740.654375 348.19976563 741.87125 348.23828125 743.125 C347.8125 746.4375 347.8125 746.4375 346.45016479 748.61278534 C342.27798317 751.49906604 338.14175612 750.98844994 333.18408203 750.94543457 C332.08909456 750.95167453 330.99410709 750.9579145 329.86593819 750.96434355 C326.1838462 750.9803433 322.50240981 750.96764143 318.8203125 750.95507812 C316.18583229 750.96049614 313.55139778 750.96747182 310.91693115 750.97631836 C304.49647881 750.99411974 298.07621333 750.99025649 291.65575361 750.9786678 C286.43847588 750.96964007 281.22125058 750.9684066 276.00396729 750.97276306 C275.26186732 750.97337599 274.51976736 750.97398893 273.75517952 750.97462043 C272.24769257 750.97589931 270.74020563 750.97719616 269.23271871 750.9785108 C255.09170825 750.98992133 240.95080147 750.9767955 226.80980802 750.95530933 C214.67198155 750.93743789 202.53430808 750.94054187 190.39648438 750.95898438 C176.30663215 750.98038277 162.21687082 750.98882265 148.12700462 750.97653532 C146.625014 750.9752611 145.12302337 750.97400362 143.62103271 750.97276306 C142.88199396 750.97214596 142.14295521 750.97152886 141.38152134 750.97089306 C136.16954757 750.96743705 130.95763137 750.97327387 125.7456665 750.98268127 C119.39535372 750.99389122 113.04523875 750.99088258 106.69494867 750.9695583 C103.45386877 750.95903403 100.21318767 750.95709632 96.9720993 750.96815491 C93.46137287 750.97903181 89.95158411 750.96544067 86.44091797 750.94543457 C85.41252367 750.95435746 84.38412937 750.96328034 83.32457161 750.97247362 C76.45963734 750.89621756 76.45963734 750.89621756 73.21072388 748.59325409 C70.73193516 744.77150637 70.62373223 741.52224765 70.5625 737.0625 C70.53671875 735.94101562 70.5109375 734.81953125 70.484375 733.6640625 C70.85425117 730.02694683 71.55517207 728.29351055 73.8125 725.4375 C77.38452291 722.92015512 80.09185193 722.01641448 84.42578125 721.6640625 C85.50182617 721.56432129 86.57787109 721.46458008 87.68652344 721.36181641 C88.8212207 721.26304199 89.95591797 721.16426758 91.125 721.0625 C110.49597549 719.21025889 110.49597549 719.21025889 126.8125 709.4375 C134.59475152 699.87213066 137.00099643 689.81819935 137.25 677.75 C137.27247803 677.080896 137.29495605 676.41179199 137.31811523 675.72241211 C137.24935258 660.49060331 130.94691589 645.24110371 126 631.0625 C125.40228603 629.3257646 124.80527893 627.58878576 124.20898438 625.8515625 C120.72624118 615.74194862 117.09693818 605.69176472 113.37768555 595.66699219 C111.415519 590.37717005 109.51954508 585.06433555 107.625 579.75 C104.06819006 569.82011464 100.40035871 559.93477431 96.6875 550.0625 C96.42907318 549.37530884 96.17064636 548.68811768 95.90438843 547.98010254 C94.89261782 545.29005132 93.88071123 542.60005129 92.86860657 539.91012573 C86.57879842 523.18639058 80.37076337 506.42108252 74.8125 489.4375 C70.17199279 491.95739302 66.43315138 495.21318339 62.5 498.6875 C61.8306543 499.27160645 61.16130859 499.85571289 60.47167969 500.45751953 C57.77269763 502.81568123 55.08870208 505.18541441 52.44140625 507.6015625 C47.31658385 512.26824069 41.72569657 515.8410721 35.8125 519.4375 C35.05582031 519.92992187 34.29914063 520.42234375 33.51953125 520.9296875 C13.80461975 533.48479465 -8.48416291 540.16294679 -31.85351562 539.49072266 C-34.54333101 539.42938586 -37.23138509 539.42632704 -39.921875 539.41796875 C-54.5328533 539.24624997 -67.33737944 537.0143217 -81.1875 532.4375 C-82.33919678 532.07132568 -82.33919678 532.07132568 -83.51416016 531.69775391 C-94.51260619 528.18935828 -104.87836755 523.61020812 -115.1875 518.4375 C-115.95352539 518.05577637 -116.71955078 517.67405273 -117.50878906 517.28076172 C-126.83977683 512.5999145 -135.73094461 507.56606848 -144.40869141 501.765625 C-153.35113745 495.87432583 -162.85468318 490.95714814 -172.32324219 485.97412109 C-174.29283288 484.91747229 -176.24605831 483.82992409 -178.18457031 482.71728516 C-179.14717773 482.16733887 -180.10978516 481.61739258 -181.1015625 481.05078125 C-182.38861084 480.29921753 -182.38861084 480.29921753 -183.70166016 479.5324707 C-186.41097919 478.33906117 -188.26048093 478.21841567 -191.1875 478.4375 C-201.35731764 502.95769566 -201.35731764 502.95769566 -211.13012695 527.63793945 C-213.41751556 533.53626073 -215.82399397 539.37142394 -218.3125 545.1875 C-221.9791354 553.77182536 -225.22461263 562.47909649 -228.39355469 571.25732422 C-229.54273526 574.41297691 -230.74222848 577.5490585 -231.9375 580.6875 C-233.0310799 583.60040612 -234.11063632 586.51837606 -235.1875 589.4375 C-235.79948242 591.09386475 -235.79948242 591.09386475 -236.42382812 592.78369141 C-255.42316035 642.69859054 -255.42316035 642.69859054 -250.0546875 694.45703125 C-248.90715917 696.62669575 -247.69411572 698.50220633 -246.1875 700.4375 C-245.63835937 701.15035156 -245.08921875 701.86320313 -244.5234375 702.59765625 C-234.32843499 714.97088617 -219.90582639 718.00903507 -204.90893555 721.29443359 C-203.85746338 721.52984863 -202.80599121 721.76526367 -201.72265625 722.0078125 C-200.777854 722.21164551 -199.83305176 722.41547852 -198.85961914 722.62548828 C-195.13774296 723.75650337 -192.22558632 725.45620177 -189.40234375 728.125 C-187.63584462 731.48759642 -187.71306654 734.73072351 -187.75 738.4375 C-187.73001953 739.1490625 -187.71003906 739.860625 -187.68945312 740.59375 C-187.69270566 744.08046985 -187.90271173 746.06020089 -190.02734375 748.875 C-193.9560507 751.71674101 -197.27299982 751.55757754 -201.98852539 751.54394531 C-202.7117417 751.54324791 -203.434958 751.54255051 -204.18008995 751.54183197 C-206.69431467 751.53803865 -209.20845408 751.52679624 -211.72265625 751.515625 C-213.59123132 751.5107775 -215.45980749 751.50633966 -217.3283844 751.5022583 C-221.70292444 751.49172771 -226.07744046 751.47773501 -230.45196533 751.4621582 C-235.9852891 751.44326671 -241.51859506 751.4300221 -247.05194092 751.4206543 C-247.82487389 751.41934021 -248.59780687 751.41802613 -249.39416206 751.41667223 C-250.99665149 751.41395876 -252.59914092 751.41124669 -254.20163035 751.40853596 C-270.83189583 751.37985574 -287.46196256 751.32646987 -304.09209251 751.25357819 C-313.35754235 751.21343152 -322.62289941 751.18114659 -331.88842773 751.16650391 C-340.09728089 751.15351682 -348.30594885 751.12669554 -356.51469761 751.08288693 C-360.82569894 751.06033867 -365.1364728 751.04458599 -369.44753838 751.04561615 C-373.46439319 751.04635844 -377.48073234 751.02858404 -381.49745369 750.99633217 C-382.96805089 750.98780601 -384.43870574 750.98610164 -385.90931702 750.99169731 C-387.91344001 750.99831119 -389.91759831 750.97810186 -391.9216156 750.95648193 C-393.04197425 750.95279476 -394.1623329 750.94910759 -395.31664181 750.94530869 C-398.85498422 750.31943277 -400.01093524 749.24478078 -402.1875 746.4375 C-403.96545594 741.10363217 -403.61378817 735.53018738 -402.5 730.0625 C-400.02245969 725.10741937 -395.71029922 722.99721155 -390.6875 721.10546875 C-389.64150635 720.70312012 -388.5955127 720.30077148 -387.51782227 719.88623047 C-386.41881592 719.47002441 -385.31980957 719.05381836 -384.1875 718.625 C-370.76603717 713.3847782 -359.1990892 707.9078381 -348.1875 698.4375 C-346.70636719 697.26960937 -346.70636719 697.26960937 -345.1953125 696.078125 C-335.15650751 687.6941729 -328.79243539 673.96717109 -322.48388672 662.72900391 C-321.30372474 660.64293981 -320.09857999 658.57484582 -318.87890625 656.51171875 C-303.83738698 630.8585342 -292.9793065 602.39803669 -282.11425781 574.78222656 C-281.17692536 572.41074583 -280.22731121 570.04455981 -279.2734375 567.6796875 C-275.04197439 557.18362585 -270.94521102 546.64057012 -266.89892578 536.07177734 C-264.07405469 528.7058908 -261.17941596 521.37224913 -258.2265625 514.05688477 C-255.46599071 507.19341316 -252.82426831 500.28682466 -250.1875 493.375 C-246.54045308 483.82280959 -242.71564115 474.36838776 -238.68359375 464.97265625 C-236.64451871 460.15447633 -235.29877264 456.68099143 -236.1875 451.4375 C-245.71962655 441.05024864 -264.89302534 439.2334535 -278.04199219 436.83984375 C-279.7455363 436.52038077 -281.44105798 436.15819265 -283.1328125 435.78125 C-308.23891834 430.29181207 -333.13075011 433.94964163 -355.02734375 447.359375 C-366.3253915 454.78899355 -372.97746011 466.47932737 -376.3125 479.4375 C-378.42250497 491.48494772 -375.60774383 503.59701235 -370.1875 514.4375 C-369.74128486 520.57295817 -369.74128486 520.57295817 -371.1875 523.375 C-374.45407125 525.11036598 -377.63405566 525.02748026 -381.1875 524.4375 C-391.68662381 519.29507201 -396.82527405 508.54714613 -400.9375 498.1875 C-403.4258811 490.7223567 -403.37374682 483.5187589 -403.37280273 475.71679688 C-403.37497909 473.70681243 -403.39314353 471.69738694 -403.41210938 469.6875 C-403.42897594 458.39814864 -401.83492639 449.07223494 -397.625 438.625 C-397.27493896 437.75625244 -396.92487793 436.88750488 -396.56420898 435.99243164 C-393.35568487 428.33500022 -389.34795946 421.96760196 -384.1875 415.4375 C-383.4553125 414.47457031 -382.723125 413.51164062 -381.96875 412.51953125 C-365.27728647 391.21440615 -337.72660498 376.53300816 -311.1875 371.4375 C-310.5063916 371.30214844 -309.8252832 371.16679687 -309.12353516 371.02734375 C-277.03761405 364.87217029 -242.56961216 367.48868613 -211.43798828 376.93432617 C-208.96114034 377.48811046 -206.71754542 377.52369449 -204.1875 377.4375 C-200.86430482 370.66148147 -197.88660136 363.89451224 -195.4375 356.75 C-190.11653135 341.23986538 -184.25183602 325.87580266 -177.640625 310.86865234 C-176.13945584 307.32405702 -174.78075192 303.74061428 -173.453125 300.12890625 C-171.29776898 294.32504475 -169.06581552 288.55811368 -166.75 282.81640625 C-166.31267548 281.73141846 -166.31267548 281.73141846 -165.86651611 280.62451172 C-164.67789337 277.6800598 -163.48664464 274.73668853 -162.29199219 271.79467773 C-158.74812495 263.05797991 -155.38587009 254.29668458 -152.29570007 245.38887024 C-150.25928157 239.55131367 -147.94990919 233.86403108 -145.5 228.1875 C-141.63346421 219.0788197 -138.03237069 209.89149659 -134.5625 200.625 C-131.54108942 192.55860768 -128.47096987 184.5366308 -125.0625 176.625 C-121.70559397 168.82650522 -118.69706942 160.92469383 -115.7512207 152.96264648 C-113.29472407 146.34017361 -110.75153977 139.75875435 -108.14331055 133.19458008 C-103.8090405 122.28485708 -99.58573692 111.34039491 -95.5625 100.3125 C-94.92356812 98.59788574 -94.92356812 98.59788574 -94.27172852 96.84863281 C-90.80216302 87.21071276 -88.68671239 79.14473189 -92.69921875 69.4375 C-99.98620545 54.7487709 -108.46653274 45.81340247 -124.19726562 40.09423828 C-132.91827575 37.21647611 -142.12595063 35.41081673 -151.20703125 34.125 C-154.13789102 33.10758122 -155.35931558 31.95579377 -157.1875 29.4375 C-157.58850915 26.60684716 -157.74872899 24.25403341 -157.6875 21.4375 C-157.71070313 20.37015625 -157.71070313 20.37015625 -157.734375 19.28125 C-157.70933304 15.92562777 -157.43222706 13.79766435 -155.53125 11 C-150.91608201 7.92322134 -145.3176676 8.29384491 -139.921875 8.19140625 C-138.47712761 8.15971209 -137.03238496 8.12780136 -135.58764648 8.09570312 C-134.83071503 8.08031494 -134.07378357 8.06492676 -133.29391479 8.04907227 C-119.34056362 7.75849416 -105.42907987 7.18777585 -91.50137329 6.30252075 C-81.8782757 5.69097681 -72.26396396 5.23229244 -62.625 4.9375 C-54.18304879 4.66752897 -45.92529083 4.08273632 -37.5546875 2.98046875 C-25.1342736 1.36998051 -12.5210034 0.34743446 0 0 Z M-63.1875 130.4375 C-63.55101562 131.67242187 -63.91453125 132.90734375 -64.2890625 134.1796875 C-72.95868993 163.47946574 -83.95937524 191.76713585 -95.1628418 220.17382812 C-101.34704189 235.88073095 -107.35550016 251.65623997 -113.1484375 267.51171875 C-113.39350037 268.18225281 -113.63856323 268.85278687 -113.89105225 269.54364014 C-115.0645739 272.75761197 -116.2334938 275.97311204 -117.39648438 279.19091797 C-119.79961421 285.80501161 -122.34394862 292.32680126 -125.08447266 298.80834961 C-126.45486212 302.07477814 -127.70868166 305.36513931 -128.9375 308.6875 C-129.45172296 310.07034967 -129.96605275 311.45315963 -130.48046875 312.8359375 C-130.7542334 313.57424805 -131.02799805 314.31255859 -131.31005859 315.07324219 C-132.94895289 319.48922781 -134.59865401 323.9011579 -136.25 328.3125 C-136.6200415 329.30161377 -136.99008301 330.29072754 -137.37133789 331.30981445 C-139.70434614 337.53004667 -142.06438415 343.73940042 -144.4453125 349.94140625 C-144.72819626 350.67879028 -145.01108002 351.41617432 -145.30253601 352.17590332 C-146.69668997 355.8090767 -148.09339008 359.44123643 -149.49438477 363.07177734 C-150.80723441 366.4802315 -152.10306072 369.8947572 -153.387146 373.31414795 C-153.94098506 374.78349191 -154.49961428 376.25103594 -155.06207275 377.71710205 C-155.93715871 380.00553438 -156.79271007 382.3004773 -157.64453125 384.59765625 C-157.9147258 385.29418808 -158.18492035 385.99071991 -158.46330261 386.70835876 C-160.02430618 390.99197404 -160.55916562 394.04711395 -159.1875 398.4375 C-157.0250321 400.1215458 -155.22842051 401.23073663 -152.8125 402.4375 C-152.1220459 402.80431885 -151.4315918 403.1711377 -150.72021484 403.54907227 C-148.22074347 404.86831197 -145.70475971 406.15253711 -143.1875 407.4375 C-141.04098766 408.5494715 -138.89519708 409.66283698 -136.75 410.77734375 C-133.25101284 412.5932391 -129.75125042 414.40751392 -126.24682617 416.21289062 C-119.81893505 419.52970565 -113.43133143 422.89494956 -107.125 426.4375 C-78.71320784 442.38272372 -50.60247735 457.40147559 -19.125 466.3125 C-18.1148584 466.59883301 -17.1047168 466.88516602 -16.06396484 467.18017578 C3.65019287 472.56264898 25.80090289 475.07468058 44.375 464.625 C50.14131968 460.75485627 55.92052354 456.61879185 57.68798828 449.56469727 C57.96425381 444.84489025 55.88842995 440.47112644 54.25 436.125 C53.84595947 435.00778564 53.44191895 433.89057129 53.02563477 432.73950195 C51.64780293 428.96172541 50.23523983 425.19851365 48.8125 421.4375 C48.28513212 420.03776951 47.7577889 418.63802973 47.23046875 417.23828125 C44.21724388 409.25491444 41.16325383 401.28764597 38.08615112 393.32870483 C35.8248365 387.47827915 33.59646103 381.61566788 31.375 375.75 C29.30997518 370.30707996 27.19854699 364.89078754 25 359.5 C21.75264326 351.45641176 18.81215407 343.30211182 15.84408569 335.15237427 C12.58670319 326.21263684 9.25498493 317.30809516 5.8125 308.4375 C2.13521676 298.95010924 -1.43850833 289.42925306 -4.9375 279.875 C-5.17353943 279.23053925 -5.40957886 278.58607849 -5.652771 277.92208862 C-8.25858415 270.79917978 -10.82591672 263.66533272 -13.3125 256.5 C-16.30256696 247.8920992 -19.67713396 239.43673117 -23.01953125 230.9609375 C-26.28116707 222.67998293 -29.37103028 214.33696879 -32.46484375 205.9921875 C-32.90957031 204.79851562 -33.35429688 203.60484375 -33.8125 202.375 C-34.04767334 201.74295654 -34.28284668 201.11091309 -34.52514648 200.4597168 C-36.26425479 195.8175558 -38.06332024 191.2010999 -39.8828125 186.58984375 C-46.59836306 169.53276251 -52.73443152 152.37908219 -58.34643555 134.92651367 C-59.11097906 132.4760856 -59.11097906 132.4760856 -60.1875 130.4375 C-61.1775 130.4375 -62.1675 130.4375 -63.1875 130.4375 Z " fill="#F0E1BA" transform="translate(1303.1875,5.5625)"/>
<path d="M0 0 C11.96178347 10.23352242 20.52654493 23.33722664 21.9921875 39.30859375 C22.35152569 44.60692062 22.44707704 49.89388019 22.4296875 55.203125 C22.4296875 56.42644531 22.4296875 57.64976562 22.4296875 58.91015625 C21.69978706 77.40857063 12.71611313 93.74098888 -0.65625 106.13671875 C-12.57506761 116.08383605 -27.09798896 121.78649901 -42.5703125 121.515625 C-43.49070312 121.51884766 -44.41109375 121.52207031 -45.359375 121.52539062 C-63.59167064 121.38415453 -78.79712109 114.78039989 -91.9453125 102.265625 C-95.91823788 98.1685457 -98.35981262 94.40108265 -100.5703125 89.203125 C-101.2303125 88.089375 -101.8903125 86.975625 -102.5703125 85.828125 C-112.06243991 69.4326322 -111.90258427 48.03825573 -107.51953125 29.97265625 C-105.92738211 25.3272499 -103.97493871 21.32006795 -100.6328125 17.703125 C-98.69263842 15.53357073 -97.12545355 13.52909629 -95.5078125 11.078125 C-93.45950426 8.03869987 -91.18974767 5.76019267 -88.5703125 3.203125 C-87.62783895 2.04047244 -86.69061449 0.87355134 -85.7578125 -0.296875 C-65.03084902 -24.35681753 -22.26658244 -18.0038083 0 0 Z " fill="#F0E1BA" transform="translate(841.5703125,644.796875)"/>
<path d="M0 0 C1.65491455 0.00918457 1.65491455 0.00918457 3.34326172 0.01855469 C14.38407443 0.2310981 22.17611901 2.83816312 31.625 8.4375 C33.30734046 9.05588839 34.99530389 9.65911428 36.6875 10.25 C41.67517127 12.17359883 44.88456652 14.8262909 47.625 19.4375 C47.77839844 20.1490625 47.93179687 20.860625 48.08984375 21.59375 C48.35474609 22.50640625 48.35474609 22.50640625 48.625 23.4375 C50.11 23.9325 50.11 23.9325 51.625 24.4375 C54.625 29.65972222 54.625 29.65972222 54.625 32.4375 C55.2025 32.664375 55.78 32.89125 56.375 33.125 C61.00547663 35.82611137 63.3225722 40.04303721 65.03125 45.0390625 C66.28645364 50.10942459 66.4469101 55.2351162 66.625 60.4375 C66.65223145 61.15357422 66.67946289 61.86964844 66.70751953 62.60742188 C67.02691572 72.00048216 66.9916712 80.52731396 63.625 89.4375 C63.27308594 90.42105469 62.92117188 91.40460938 62.55859375 92.41796875 C57.28248899 106.1567366 48.92014755 114.49933446 37.625 123.4375 C36.83996094 124.08203125 36.05492187 124.7265625 35.24609375 125.390625 C26.52224634 131.9459259 14.33175538 134.03446338 3.625 134.4375 C2.74457031 134.47746094 1.86414062 134.51742187 0.95703125 134.55859375 C-10.49527088 134.83319056 -20.04277692 132.29888891 -30.375 127.4375 C-31.18066406 127.06753906 -31.98632812 126.69757813 -32.81640625 126.31640625 C-41.80989633 121.79619993 -48.13867926 114.71288819 -52.953125 105.9765625 C-54.35182963 103.39085445 -54.35182963 103.39085445 -56.109375 100.8984375 C-58.97465121 96.65309706 -60.85852905 93.83737111 -60.125 88.625 C-59.97546875 87.88507813 -59.8259375 87.14515625 -59.671875 86.3828125 C-59.18427029 84.30684655 -59.18427029 84.30684655 -60.375 82 C-61.51979175 79.06647114 -61.28322011 77.64734517 -60.875 74.5625 C-60.2844417 69.93985397 -61.07934925 66.93417025 -62.375 62.4375 C-63.11910145 51.51465232 -62.28179906 42.27501811 -55.375 33.4375 C-53.70833333 32.10416667 -52.04166667 30.77083333 -50.375 29.4375 C-49.54766512 28.14718633 -48.75886527 26.83173415 -48 25.5 C-45.83648987 21.82611488 -43.597749 19.86168845 -40.046875 17.5703125 C-38.1645405 16.37709951 -38.1645405 16.37709951 -36.125 14.125 C-33.57773305 11.63562548 -31.01092933 9.47858113 -28.1875 7.3125 C-27.32769531 6.64992188 -26.46789063 5.98734375 -25.58203125 5.3046875 C-17.4493216 0.56968724 -9.25917981 -0.08720479 0 0 Z " fill="#F0E1BA" transform="translate(1755.375,630.5625)"/>
</svg>
